<svg height="1024" node-id="1" sillyvg="true" template-height="1024" template-width="1024" version="1.1" viewBox="0 0 1024 1024" width="1024" xmlns="http://www.w3.org/2000/svg" xmlns:xlink="http://www.w3.org/1999/xlink"><defs node-id="110"><linearGradient gradientUnits="objectBoundingBox" id="linear-gradient" node-id="5" spreadMethod="pad" x1="0.232" x2="0.906" y1="0.113" y2="0.813"><stop offset="0" stop-color="#5894f2"/><stop offset="1" stop-color="#a2c7ff"/></linearGradient><linearGradient gradientUnits="objectBoundingBox" id="linear-gradient-2" node-id="8" spreadMethod="pad" x1="0.5" x2="0.5" y1="0" y2="1"><stop offset="0" stop-color="#cce0fe"/><stop offset="1" stop-color="#d4e5fe"/></linearGradient><linearGradient gradientUnits="objectBoundingBox" id="linear-gradient-3" node-id="11" spreadMethod="pad" x1="0" x2="1" y1="0.418" y2="0.457"><stop offset="0" stop-color="#c3d2ef"/><stop offset="1" stop-color="#ffffff"/></linearGradient><clipPath id="clip-报表分析-2" node-id="14"><path d="M 0.00 0.00 L 1024.00 0.00 L 1024.00 1024.00 L 0.00 1024.00 Z" fill="#000000" fill-rule="nonzero" node-id="131" stroke="none" target-height="1024" target-width="1024" target-x="0" target-y="0"/></clipPath><clipPath id="clip-path" node-id="3"><path d="M 0.00 0.00 L 1024.00 0.00 L 1024.00 1024.00 L 0.00 1024.00 Z" fill="#000000" fill-rule="nonzero" id="报表分析" node-id="4" stroke="none" target-height="1024" target-width="1024" target-x="0" target-y="0"/></clipPath></defs><g clip-path="url(#clip-报表分析-2)" id="报表分析-2" node-id="16"><path d="M 0.00 0.00 L 1024.00 0.00 L 1024.00 1024.00 L 0.00 1024.00 Z" fill="#ffffff" fill-opacity="0" fill-rule="nonzero" node-id="139" stroke="none" target-height="1024" target-width="1024" target-x="0" target-y="0"/><g clip-path="url(#clip-path)" group-id="1" id="报表分析-3" node-id="18"><path d="M 0.00 0.00 L 1024.00 0.00 L 1024.00 1024.00 L 0.00 1024.00 Z" fill="#ffffff" fill-opacity="0" fill-rule="nonzero" group-id="1,2" id="报表分析-4" node-id="19" stroke="none" target-height="1024" target-width="1024" target-x="0" target-y="0"/><path d="M 56.30 346.70 L 61.60 332.10 L 64.50 325.60 L 70.90 314.20 L 75.50 307.50 L 80.40 301.50 L 85.60 296.20 L 90.90 291.40 L 96.70 287.00 L 102.70 283.20 L 108.80 279.80 L 115.20 276.80 L 128.40 272.20 L 142.20 269.00 L 151.60 267.70 L 161.00 266.80 L 170.60 266.50 L 189.70 266.90 L 213.10 269.30 L 239.20 273.40 L 271.30 279.30 L 280.00 280.50 L 286.40 280.90 L 331.00 281.40 L 370.70 282.30 L 445.50 285.10 L 502.70 288.20 L 532.80 290.30 L 593.80 295.40 L 624.40 298.50 L 654.50 302.00 L 693.90 307.40 L 731.60 313.70 L 749.50 317.20 L 766.40 320.80 L 783.30 324.80 L 798.80 329.00 L 813.10 333.30 L 823.90 337.00 L 833.70 340.70 L 850.70 348.30 L 858.90 352.60 L 865.90 357.00 L 871.90 361.40 L 877.10 365.80 L 880.90 369.80 L 884.10 373.80 L 886.60 377.90 L 888.50 382.00 L 894.70 402.70 L 897.60 410.70 L 905.40 428.60 L 910.50 438.50 L 915.80 448.00 L 924.20 461.90 L 957.50 513.10 L 964.40 525.00 L 968.60 533.00 L 972.00 540.90 L 974.90 548.50 L 976.60 554.40 L 977.90 560.20 L 978.70 566.00 L 979.00 571.80 L 978.80 577.60 L 978.00 583.40 L 976.70 589.30 L 974.70 595.40 L 972.20 601.10 L 968.90 607.10 L 964.80 613.30 L 947.00 635.70 L 936.00 650.10 L 899.80 700.70 L 891.60 711.50 L 883.50 721.50 L 877.90 727.90 L 865.80 739.80 L 859.30 745.30 L 852.20 750.60 L 844.60 755.70 L 836.60 760.40 L 827.80 765.10 L 810.30 773.20 L 803.40 776.90 L 797.00 780.80 L 787.90 787.00 L 779.40 793.50 L 754.30 813.70 L 745.00 820.50 L 738.50 824.70 L 723.50 833.20 L 715.40 837.10 L 706.30 840.80 L 696.10 844.50 L 685.70 847.70 L 673.90 850.70 L 660.40 853.50 L 647.00 855.80 L 631.60 857.80 L 614.30 859.40 L 596.90 860.60 L 577.30 861.30 L 555.20 861.60 L 535.40 861.40 L 502.00 860.00 L 472.30 857.30 L 460.00 855.70 L 436.90 851.50 L 427.30 849.20 L 409.50 843.90 L 394.80 838.20 L 382.30 832.30 L 373.60 827.70 L 351.00 814.40 L 343.60 810.40 L 330.30 804.40 L 318.00 800.40 L 311.40 798.80 L 295.80 796.40 L 287.50 795.80 L 278.80 795.70 L 269.70 796.10 L 251.30 798.00 L 241.80 799.50 L 213.20 805.20 L 171.20 814.60 L 158.20 817.10 L 141.40 819.70 L 133.70 820.40 L 126.10 820.70 L 119.10 820.60 L 112.70 819.90 L 107.90 819.00 L 103.60 817.70 L 99.70 816.00 L 96.10 814.00 L 92.70 811.60 L 89.80 808.70 L 87.20 805.30 L 84.90 801.40 L 83.10 797.20 L 81.80 792.40 L 80.70 786.80 L 80.20 780.30 L 79.50 748.30 L 80.20 724.00 L 82.00 705.00 L 87.20 664.90 L 88.20 645.60 L 88.30 633.50 L 87.90 626.30 L 86.90 618.30 L 85.20 609.60 L 82.00 596.50 L 77.70 581.90 L 62.90 533.60 L 57.90 515.60 L 52.10 490.70 L 49.60 477.60 L 47.70 464.40 L 46.20 450.70 L 45.30 436.60 L 45.00 426.00 L 45.10 415.30 L 45.70 404.20 L 46.80 392.90 L 48.30 381.80 L 50.40 370.40 L 53.00 358.70 L 56.30 346.70 Z" fill="#f2f6fe" fill-rule="nonzero" group-id="1,3" id="路径_1166" node-id="20" stroke="none" target-height="595.1" target-width="934" target-x="45" target-y="266.5"/><path d="M 962.70 186.20 L 962.80 220.90 L 962.50 227.00 L 961.70 232.70 L 960.40 238.10 L 958.70 243.30 L 956.40 248.40 L 953.70 253.00 L 950.70 257.30 L 947.20 261.30 L 943.30 265.00 L 939.10 268.20 L 934.60 271.00 L 929.70 273.30 L 924.60 275.20 L 919.20 276.60 L 913.50 277.40 L 907.40 277.70 L 890.20 277.70 L 878.30 267.40 L 869.70 258.70 L 861.00 248.30 L 857.20 242.80 L 854.90 238.90 L 851.30 231.20 L 850.10 227.30 L 849.30 223.40 L 849.10 219.70 L 849.20 213.20 L 850.60 201.30 L 851.90 195.60 L 853.60 190.30 L 855.90 185.40 L 858.00 181.90 L 860.40 178.70 L 863.10 175.70 L 866.30 172.90 L 869.70 170.50 L 873.60 168.30 L 878.00 166.30 L 883.10 164.60 L 888.10 163.40 L 893.70 162.50 L 900.20 161.90 L 907.40 161.60 L 914.60 161.80 L 921.20 162.40 L 927.20 163.40 L 932.60 164.70 L 938.10 166.50 L 943.00 168.50 L 947.30 170.80 L 951.20 173.30 L 954.80 176.30 L 957.90 179.40 L 960.50 182.70 L 962.70 186.20 Z" fill="url(#linear-gradient)" fill-rule="nonzero" group-id="1,4,13" id="路径_1149" node-id="22" stroke="none" target-height="116.100006" target-width="113.70001" target-x="849.1" target-y="161.6"/><path d="M 891.00 667.30 L 545.20 667.30 L 538.40 666.90 L 529.70 665.00 L 523.60 662.60 L 520.60 660.90 L 517.30 658.50 L 514.30 655.70 L 511.70 652.50 L 509.60 649.00 L 508.00 645.60 L 506.70 641.80 L 505.70 637.70 L 505.20 633.10 L 504.90 628.10 L 504.90 211.70 L 505.10 205.30 L 505.90 199.00 L 507.20 192.70 L 508.50 188.40 L 510.20 184.30 L 512.30 180.40 L 514.80 176.70 L 517.80 173.40 L 521.20 170.50 L 525.30 167.80 L 529.60 165.70 L 534.70 163.90 L 540.00 162.70 L 546.40 161.80 L 552.90 161.60 L 927.60 161.60 L 932.40 161.80 L 937.10 162.70 L 941.60 164.00 L 946.00 165.90 L 949.80 168.20 L 953.10 170.90 L 956.00 174.00 L 958.60 177.50 L 960.80 181.60 L 962.70 186.30 L 957.30 184.40 L 951.90 183.20 L 946.30 182.60 L 940.80 182.60 L 935.30 183.20 L 929.90 184.30 L 924.60 186.00 L 919.50 188.30 L 914.60 191.20 L 910.00 194.60 L 905.90 198.30 L 902.20 202.50 L 899.00 207.00 L 896.30 211.80 L 894.10 217.00 L 892.50 222.30 L 891.50 227.70 L 891.00 233.40 L 891.00 667.30 Z" fill="url(#linear-gradient-2)" fill-rule="nonzero" group-id="1,4,14" id="减去_34" node-id="23" stroke="none" target-height="505.69998" target-width="457.80002" target-x="504.9" target-y="161.6"/><path d="M 681.50 237.60 L 679.10 237.30 L 677.00 236.40 L 675.10 235.00 L 673.70 233.20 L 672.80 231.00 L 672.50 228.60 L 672.80 226.20 L 673.70 224.10 L 675.10 222.30 L 677.00 220.90 L 679.10 220.00 L 681.50 219.70 L 828.10 219.70 L 830.50 220.00 L 832.70 220.90 L 834.50 222.30 L 835.90 224.10 L 836.80 226.20 L 837.10 228.60 L 836.80 231.00 L 835.90 233.20 L 834.50 235.00 L 832.70 236.40 L 830.50 237.30 L 828.10 237.60 Z M 549.80 237.60 L 547.40 237.30 L 545.30 236.40 L 543.50 235.00 L 542.10 233.20 L 541.20 231.00 L 540.90 228.60 L 541.20 226.20 L 542.10 224.10 L 543.50 222.30 L 545.30 220.90 L 547.40 220.00 L 549.80 219.70 L 642.60 219.70 L 645.00 220.00 L 647.10 220.90 L 648.90 222.30 L 650.30 224.10 L 651.20 226.20 L 651.60 228.60 L 651.20 231.00 L 650.30 233.20 L 648.90 235.00 L 647.10 236.40 L 645.00 237.30 L 642.60 237.60 Z" fill="#ffffff" fill-rule="nonzero" group-id="1,4,15" id="联合_158" node-id="24" stroke="none" target-height="17.90001" target-width="296.19995" target-x="540.9" target-y="219.7"/><path d="M 828.10 303.40 L 830.50 303.80 L 832.70 304.70 L 834.50 306.10 L 835.90 307.90 L 836.80 310.00 L 837.10 312.40 L 836.80 314.80 L 835.90 316.90 L 834.50 318.80 L 832.70 320.20 L 830.50 321.10 L 828.10 321.40 L 549.80 321.40 L 547.40 321.10 L 545.30 320.20 L 543.50 318.80 L 542.10 316.90 L 541.20 314.80 L 540.90 312.40 L 541.20 310.00 L 542.10 307.90 L 543.50 306.10 L 545.30 304.70 L 547.40 303.80 L 549.80 303.40 Z" fill="#ffffff" fill-rule="nonzero" group-id="1,4,16" id="矩形_1395" node-id="25" stroke="none" target-height="18" target-width="296.19995" target-x="540.9" target-y="303.4"/><path d="M 828.10 387.20 L 830.50 387.60 L 832.70 388.50 L 834.50 389.90 L 835.90 391.70 L 836.80 393.80 L 837.10 396.20 L 836.80 398.60 L 835.90 400.70 L 834.50 402.50 L 832.70 404.00 L 830.50 404.90 L 828.10 405.20 L 549.80 405.20 L 547.40 404.90 L 545.30 404.00 L 543.50 402.50 L 542.10 400.70 L 541.20 398.60 L 540.90 396.20 L 541.20 393.80 L 542.10 391.70 L 543.50 389.90 L 545.30 388.50 L 547.40 387.60 L 549.80 387.20 Z" fill="#ffffff" fill-rule="nonzero" group-id="1,4,17" id="矩形_1396" node-id="26" stroke="none" target-height="18" target-width="296.19995" target-x="540.9" target-y="387.2"/><path d="M 693.50 311.20 L 695.90 311.50 L 698.00 312.40 L 699.80 313.80 L 701.20 315.70 L 702.10 317.80 L 702.40 320.20 L 702.10 322.60 L 701.20 324.70 L 699.80 326.50 L 698.00 327.90 L 695.90 328.80 L 693.50 329.20 L 549.80 329.20 L 547.40 328.80 L 545.30 327.90 L 543.50 326.50 L 542.10 324.70 L 541.20 322.60 L 540.90 320.20 L 541.20 317.80 L 542.10 315.70 L 543.50 313.80 L 545.30 312.40 L 547.40 311.50 L 549.80 311.20 Z" fill="#ffffff" fill-rule="nonzero" group-id="1,4,18" id="矩形_1397" node-id="27" stroke="none" target-height="18" target-width="161.5" target-x="540.9" target-y="311.2"/><path d="M 767.00 255.60 L 769.90 255.90 L 772.60 256.60 L 775.10 257.80 L 777.30 259.40 L 779.20 261.30 L 780.80 263.50 L 782.00 266.00 L 782.70 268.70 L 783.00 271.60 L 783.00 664.60 L 782.70 667.50 L 782.00 670.20 L 780.80 672.70 L 779.20 674.90 L 777.30 676.80 L 775.10 678.40 L 772.60 679.60 L 769.90 680.30 L 767.00 680.60 L 207.00 680.60 L 204.10 680.30 L 201.40 679.60 L 198.90 678.40 L 196.70 676.80 L 194.80 674.90 L 193.20 672.70 L 192.00 670.20 L 191.30 667.50 L 191.00 664.60 L 191.00 271.60 L 191.30 268.70 L 192.00 266.00 L 193.20 263.50 L 194.80 261.30 L 196.70 259.40 L 198.90 257.80 L 201.40 256.60 L 204.10 255.90 L 207.00 255.60 Z" fill="#458cfb" fill-rule="nonzero" group-id="1,5,19" id="矩形_1402" node-id="29" stroke="none" target-height="424.99997" target-width="592" target-x="191" target-y="255.6"/><path d="M 740.00 255.60 L 743.30 255.90 L 746.30 256.70 L 749.10 258.10 L 751.60 259.80 L 753.80 262.00 L 755.50 264.50 L 756.90 267.30 L 757.70 270.30 L 758.00 273.60 L 758.00 662.60 L 757.70 665.90 L 756.90 668.90 L 755.50 671.70 L 753.80 674.20 L 751.60 676.40 L 749.10 678.10 L 746.30 679.50 L 743.30 680.30 L 740.00 680.60 L 185.00 680.60 L 181.70 680.30 L 178.70 679.50 L 175.90 678.10 L 173.40 676.40 L 171.20 674.20 L 169.50 671.70 L 168.10 668.90 L 167.30 665.90 L 167.00 662.60 L 167.00 273.60 L 167.30 270.30 L 168.10 267.30 L 169.50 264.50 L 171.20 262.00 L 173.40 259.80 L 175.90 258.10 L 178.70 256.70 L 181.70 255.90 L 185.00 255.60 Z" fill="#c3d8ff" fill-rule="nonzero" group-id="1,5,20" id="矩形_1403" node-id="30" stroke="none" target-height="424.99997" target-width="591" target-x="167" target-y="255.6"/><path d="M 721.00 282.60 L 724.50 283.20 L 727.50 285.00 L 729.60 287.60 L 730.40 289.10 L 731.00 292.60 L 731.00 645.60 L 730.40 649.10 L 728.60 652.10 L 726.00 654.20 L 724.50 655.00 L 721.00 655.60 L 203.00 655.60 L 199.50 655.00 L 196.50 653.20 L 194.40 650.60 L 193.60 649.10 L 193.00 645.60 L 193.00 292.60 L 193.60 289.10 L 195.40 286.10 L 198.00 284.00 L 199.50 283.20 L 203.00 282.60 Z" fill="#ffffff" fill-rule="nonzero" group-id="1,5,21" id="矩形_1404" node-id="31" stroke="none" target-height="372.99997" target-width="538" target-x="193" target-y="282.6"/><path d="M 206.00 316.10 L 206.70 312.40 L 208.50 309.30 L 211.20 307.00 L 212.80 306.30 L 216.50 305.60 L 220.20 306.30 L 223.30 308.10 L 225.60 310.80 L 226.80 314.20 L 226.80 318.00 L 226.30 319.80 L 224.50 322.90 L 221.80 325.20 L 220.20 325.90 L 216.50 326.60 L 212.80 325.90 L 209.70 324.10 L 207.40 321.40 L 206.70 319.80 L 206.00 316.10 Z" fill="#f92d2d" fill-rule="nonzero" group-id="1,5,22" id="椭圆_356" node-id="32" stroke="none" target-height="21" target-width="20.800003" target-x="206" target-y="305.6"/><path d="M 249.00 315.60 L 249.60 312.10 L 251.40 309.10 L 254.00 307.00 L 255.50 306.20 L 259.00 305.60 L 262.50 306.20 L 264.00 307.00 L 266.60 309.10 L 268.40 312.10 L 269.00 315.60 L 268.40 319.10 L 266.60 322.10 L 264.00 324.20 L 262.50 325.00 L 259.00 325.60 L 255.50 325.00 L 252.50 323.20 L 250.40 320.60 L 249.60 319.10 L 249.00 315.60 Z" fill="#f9de2d" fill-rule="nonzero" group-id="1,5,23" id="椭圆_357" node-id="33" stroke="none" target-height="20" target-width="20" target-x="249" target-y="305.6"/><path d="M 291.00 316.10 L 291.70 312.40 L 293.50 309.30 L 296.20 307.00 L 297.80 306.30 L 301.50 305.60 L 305.20 306.30 L 308.30 308.10 L 310.60 310.80 L 311.80 314.20 L 311.80 318.00 L 311.30 319.80 L 309.50 322.90 L 306.80 325.20 L 305.20 325.90 L 301.50 326.60 L 297.80 325.90 L 294.70 324.10 L 292.40 321.40 L 291.70 319.80 L 291.00 316.10 Z" fill="#18c45d" fill-rule="nonzero" group-id="1,5,24" id="椭圆_358" node-id="34" stroke="none" target-height="21" target-width="20.799988" target-x="291" target-y="305.6"/><path d="M 425.00 312.60 L 500.00 312.60 L 500.00 320.60 L 425.00 320.60 Z" fill="#c3d8ff" fill-rule="nonzero" group-id="1,5,25" id="矩形_1405" node-id="35" stroke="none" target-height="8" target-width="75" target-x="425" target-y="312.6"/><path d="M 206.00 459.60 L 449.00 459.60 L 449.00 473.60 L 206.00 473.60 Z" fill="#c3d8ff" fill-rule="nonzero" group-id="1,5,26" id="矩形_1411" node-id="36" stroke="none" target-height="14" target-width="243" target-x="206" target-y="459.6"/><path d="M 206.00 485.60 L 449.00 485.60 L 449.00 497.60 L 206.00 497.60 Z" fill="#c3d8ff" fill-rule="nonzero" group-id="1,5,27" id="矩形_1412" node-id="37" stroke="none" target-height="12" target-width="243" target-x="206" target-y="485.6"/><path d="M 206.00 510.60 L 449.00 510.60 L 449.00 523.60 L 206.00 523.60 Z" fill="#c3d8ff" fill-rule="nonzero" group-id="1,5,28" id="矩形_1413" node-id="38" stroke="none" target-height="12.9999695" target-width="243" target-x="206" target-y="510.6"/><path d="M 513.00 312.60 L 588.00 312.60 L 588.00 320.60 L 513.00 320.60 Z" fill="#c3d8ff" fill-rule="nonzero" group-id="1,5,29" id="矩形_1406" node-id="39" stroke="none" target-height="8" target-width="75" target-x="513" target-y="312.6"/><path d="M 600.00 312.60 L 676.00 312.60 L 676.00 320.60 L 600.00 320.60 Z" fill="#c3d8ff" fill-rule="nonzero" group-id="1,5,30" id="矩形_1407" node-id="40" stroke="none" target-height="8" target-width="76" target-x="600" target-y="312.6"/><path d="M 206.00 365.60 L 281.00 365.60 L 281.00 440.60 L 206.00 440.60 Z" fill="#c3d8ff" fill-rule="nonzero" group-id="1,5,31" id="矩形_1408" node-id="41" stroke="none" target-height="75" target-width="75" target-x="206" target-y="365.6"/><path d="M 206.00 544.60 L 449.00 544.60 L 449.00 634.60 L 206.00 634.60 Z" fill="#c3d8ff" fill-rule="nonzero" group-id="1,5,32" id="矩形_1414" node-id="42" stroke="none" target-height="90" target-width="243" target-x="206" target-y="544.6"/><path d="M 475.00 365.60 L 718.00 365.60 L 718.00 634.60 L 475.00 634.60 Z" fill="#c3d8ff" fill-rule="nonzero" group-id="1,5,33" id="矩形_1415" node-id="43" stroke="none" target-height="268.99997" target-width="243" target-x="475" target-y="365.6"/><path d="M 291.00 365.60 L 366.00 365.60 L 366.00 440.60 L 291.00 440.60 Z" fill="#c3d8ff" fill-rule="nonzero" group-id="1,5,34" id="矩形_1409" node-id="44" stroke="none" target-height="75" target-width="75" target-x="291" target-y="365.6"/><path d="M 375.00 365.60 L 449.00 365.60 L 449.00 440.60 L 375.00 440.60 Z" fill="#c3d8ff" fill-rule="nonzero" group-id="1,5,35" id="矩形_1410" node-id="45" stroke="none" target-height="75" target-width="74" target-x="375" target-y="365.6"/><path d="M 828.80 739.00 L 839.80 739.00 L 839.80 723.20 L 829.20 725.30 Z" fill="#c77760" fill-rule="nonzero" group-id="1,6,36,53,88" id="路径_1163" node-id="49" stroke="none" target-height="15.799988" target-width="11" target-x="828.8" target-y="723.2"/><path d="M 839.60 734.50 L 839.90 747.70 L 803.90 747.10 L 805.00 745.30 L 809.30 742.50 L 820.20 737.70 L 828.80 734.50 Z" fill="#272f31" fill-rule="nonzero" group-id="1,6,36,53,89" id="路径_1164" node-id="50" stroke="none" target-height="13.200012" target-width="36" target-x="803.9" target-y="734.5"/><path d="M 902.50 739.00 L 891.60 739.00 L 891.60 723.20 L 902.20 725.30 Z" fill="#c77760" fill-rule="nonzero" group-id="1,6,36,54,90" id="路径_1163-2" node-id="52" stroke="none" target-height="15.799988" target-width="10.900024" target-x="891.6" target-y="723.2"/><path d="M 891.80 734.50 L 891.40 747.70 L 927.50 747.10 L 926.40 745.30 L 922.10 742.50 L 911.20 737.70 L 902.50 734.50 Z" fill="#272f31" fill-rule="nonzero" group-id="1,6,36,54,91" id="路径_1164-2" node-id="53" stroke="none" target-height="13.200012" target-width="36.099976" target-x="891.4" target-y="734.5"/><path d="M 830.90 640.00 L 829.20 671.10 L 827.30 727.80 L 832.80 728.40 L 837.40 728.40 L 841.00 727.80 L 841.50 727.00 L 842.30 724.00 L 843.80 714.90 L 845.20 702.20 L 850.90 644.40 L 861.40 605.00 L 864.10 596.30 L 865.60 592.70 L 866.80 595.40 L 869.00 602.70 L 880.50 645.10 L 889.20 731.20 L 903.60 731.20 L 903.30 682.20 L 902.60 649.50 L 902.00 639.40 L 894.70 565.00 L 893.60 548.80 L 893.30 548.50 L 891.00 548.30 L 884.00 548.70 L 863.60 551.00 L 843.70 553.70 L 830.90 640.00 Z" fill="#1b245d" fill-rule="nonzero" group-id="1,6,36,55" id="路径_1165" node-id="54" stroke="none" target-height="182.90002" target-width="76.29999" target-x="827.3" target-y="548.3"/><path d="M 861.40 434.30 L 861.20 440.50 L 861.90 445.00 L 862.70 447.20 L 863.80 449.00 L 866.00 450.70 L 867.50 451.20 L 867.80 468.00 L 882.80 467.90 L 882.80 451.20 L 887.10 444.70 L 888.80 441.20 L 889.70 438.50 L 890.20 434.50 L 889.90 432.20 L 888.90 431.10 L 887.90 430.80 L 886.60 431.00 L 884.40 432.00 L 884.10 430.20 L 883.40 428.90 L 882.40 428.00 L 880.00 426.90 L 877.30 426.60 L 871.90 423.90 L 867.50 422.60 L 866.50 422.70 L 863.10 424.60 L 862.00 425.50 L 861.40 426.60 L 861.00 429.50 L 861.40 434.30 Z" fill="#c37163" fill-rule="nonzero" group-id="1,6,37,56" id="路径_1152" node-id="56" stroke="none" target-height="45.399994" target-width="29.200012" target-x="861" target-y="422.6"/><path d="M 858.80 428.20 L 858.30 423.80 L 859.10 420.60 L 860.20 419.10 L 863.50 416.50 L 866.40 412.80 L 867.80 411.70 L 871.10 411.40 L 872.50 411.80 L 875.60 413.60 L 876.70 413.80 L 881.80 412.90 L 884.60 413.10 L 887.90 414.90 L 889.60 416.20 L 891.10 417.70 L 892.20 419.40 L 893.60 427.40 L 893.60 432.80 L 892.10 437.90 L 890.80 440.50 L 888.80 443.20 L 886.10 446.30 L 887.20 444.10 L 888.00 438.00 L 887.80 434.00 L 886.80 432.20 L 886.00 432.00 L 884.90 432.30 L 883.20 433.80 L 882.90 432.00 L 881.70 429.60 L 880.30 428.20 L 878.60 427.30 L 869.40 424.40 L 866.00 424.00 L 864.00 425.10 L 862.90 426.70 L 861.80 430.80 L 861.50 434.30 L 858.80 428.20 Z" fill="#1c2463" fill-rule="nonzero" group-id="1,6,37,57" id="路径_1153" node-id="57" stroke="none" target-height="34.899994" target-width="35.299988" target-x="858.3" target-y="411.4"/><path d="M 862.90 459.60 L 864.00 462.00 L 865.50 464.10 L 867.40 465.80 L 869.60 467.00 L 872.00 467.80 L 874.70 468.00 L 877.40 467.70 L 879.80 467.00 L 882.10 465.80 L 884.10 464.20 L 885.80 462.20 L 887.10 459.90 L 883.00 459.60 L 880.70 461.90 L 877.70 463.20 L 876.10 463.40 L 871.70 462.70 L 870.00 461.90 L 868.60 461.10 L 867.40 459.60 Z" fill="#ffffff" fill-rule="nonzero" group-id="1,6,38,58" id="路径_1154" node-id="59" stroke="none" target-height="8.399994" target-width="24.199951" target-x="862.9" target-y="459.6"/><path d="M 839.90 553.20 L 844.10 555.70 L 848.50 557.70 L 853.10 559.30 L 857.90 560.30 L 862.70 560.90 L 867.60 561.00 L 873.60 560.50 L 878.70 559.50 L 886.90 556.80 L 890.10 555.30 L 893.90 553.00 L 894.30 549.30 L 840.00 550.10 Z" fill="#ffffff" fill-rule="nonzero" group-id="1,6,38,59" id="路径_1156" node-id="60" stroke="none" target-height="11.700012" target-width="54.399963" target-x="839.9" target-y="549.3"/><path d="M 851.10 459.60 L 851.70 466.30 L 851.70 469.40 L 850.50 476.20 L 849.20 479.60 L 848.00 481.70 L 844.50 485.50 L 843.20 491.70 L 842.20 502.00 L 841.30 514.60 L 840.00 550.80 L 846.20 553.30 L 851.10 554.70 L 856.60 555.80 L 863.20 556.50 L 867.80 556.60 L 872.70 556.20 L 878.00 555.40 L 883.20 554.10 L 888.60 552.20 L 894.30 549.40 L 898.00 523.30 L 905.30 493.20 L 903.40 491.60 L 902.10 489.80 L 901.10 487.70 L 899.80 482.20 L 899.70 475.60 L 900.90 467.70 L 902.30 462.50 L 901.80 462.00 L 900.40 461.50 L 896.40 460.60 L 886.20 459.60 L 885.50 462.00 L 884.60 463.50 L 883.40 464.90 L 881.50 466.30 L 878.30 467.50 L 873.80 467.70 L 870.10 466.70 L 867.80 465.30 L 864.50 462.20 L 862.70 459.50 Z" fill="#192160" fill-rule="nonzero" group-id="1,6,38,60" id="路径_1155" node-id="61" stroke="none" target-height="97.099976" target-width="65.29999" target-x="840" target-y="459.5"/><path d="M 863.50 500.40 L 861.50 496.50 L 859.60 491.00 L 859.40 489.20 L 859.70 487.70 L 860.30 486.60 L 861.30 485.70 L 862.10 485.30 L 864.00 485.70 L 865.40 486.60 L 870.80 491.80 L 871.60 492.20 L 872.30 492.20 L 872.60 491.70 L 873.10 487.40 L 873.30 487.00 L 874.10 487.00 L 875.00 487.70 L 875.80 489.00 L 876.60 491.50 L 879.50 501.00 L 879.20 502.60 L 876.60 507.50 L 873.70 507.40 L 869.60 506.10 L 866.00 503.70 L 863.50 500.40 Z" fill="#c37163" fill-rule="nonzero" group-id="1,6,39,61" id="路径_1159" node-id="63" stroke="none" target-height="22.200012" target-width="20.099976" target-x="859.4" target-y="485.3"/><path d="M 875.40 508.20 L 879.90 511.00 L 884.80 501.50 L 879.60 499.00 L 876.90 501.50 L 876.00 502.80 L 875.40 504.40 L 875.10 506.10 L 875.40 508.20 Z" fill="#ffffff" fill-rule="nonzero" group-id="1,6,39,62" id="路径_1158" node-id="64" stroke="none" target-height="12" target-width="9.700012" target-x="875.1" target-y="499"/><path d="M 905.40 493.20 L 910.20 502.00 L 912.00 505.90 L 912.50 507.60 L 912.20 509.10 L 910.50 509.80 L 908.80 509.90 L 906.40 509.60 L 901.40 508.40 L 897.00 506.40 L 887.50 499.90 L 885.10 498.80 L 882.80 498.30 L 881.70 499.80 L 880.00 503.90 L 878.70 509.90 L 878.80 511.90 L 883.70 514.90 L 900.20 522.30 L 915.20 527.80 L 919.60 528.80 L 921.90 529.00 L 925.30 528.30 L 927.20 526.60 L 928.10 523.50 L 928.10 521.10 L 926.60 513.80 L 923.60 503.50 L 919.50 491.90 L 914.70 480.40 L 909.70 470.60 L 907.00 466.70 L 904.80 464.10 L 903.10 462.80 L 901.70 462.30 L 900.50 462.40 L 899.20 463.10 L 898.20 464.20 L 897.40 465.80 L 896.90 468.50 L 896.80 472.00 L 898.00 479.50 L 900.30 486.60 L 901.70 489.70 L 904.00 492.80 L 905.40 493.20 Z" fill="#3b62fb" fill-rule="nonzero" group-id="1,6,39,63" id="路径_1157" node-id="65" stroke="none" target-height="66.70001" target-width="49.399963" target-x="878.7" target-y="462.3"/><path d="M 836.10 550.10 L 838.50 551.30 L 841.80 552.40 L 846.20 552.90 L 846.80 552.60 L 847.00 552.10 L 845.50 548.70 L 841.30 543.10 L 838.90 537.50 L 838.30 535.30 L 837.40 535.60 L 832.30 538.60 L 833.40 543.80 L 834.60 547.70 L 836.10 550.10 Z" fill="#c37163" fill-rule="nonzero" group-id="1,6,40,64" id="路径_1162" node-id="67" stroke="none" target-height="17.600037" target-width="14.700012" target-x="832.3" target-y="535.3"/><path d="M 830.20 542.10 L 833.90 540.10 L 837.30 537.70 L 840.30 534.90 L 838.00 532.30 L 836.00 529.50 L 828.50 536.20 Z" fill="#ffffff" fill-rule="nonzero" group-id="1,6,40,65" id="路径_1161" node-id="68" stroke="none" target-height="12.599976" target-width="11.799988" target-x="828.5" target-y="529.5"/><path d="M 844.20 486.70 L 839.10 490.00 L 835.30 493.00 L 827.80 500.10 L 838.20 529.60 L 837.30 531.70 L 836.20 533.10 L 834.00 534.80 L 830.00 536.90 L 827.00 537.80 L 825.80 536.30 L 820.80 525.60 L 813.70 506.50 L 813.10 503.30 L 813.40 498.90 L 814.80 495.90 L 816.00 494.20 L 826.30 482.90 L 839.80 469.50 L 850.70 459.80 L 851.10 459.60 L 851.60 460.10 L 852.40 464.40 L 852.30 471.00 L 851.70 474.60 L 850.70 478.20 L 849.10 481.50 L 847.80 483.50 L 846.10 485.20 L 844.20 486.70 Z" fill="#3b62fb" fill-rule="nonzero" group-id="1,6,40,66" id="路径_1160" node-id="69" stroke="none" target-height="78.19998" target-width="39.30005" target-x="813.1" target-y="459.6"/><path d="M 203.20 596.50 L 203.20 699.20 L 202.00 700.70 L 198.20 702.90 L 194.50 704.10 L 190.20 705.00 L 183.70 705.90 L 176.50 706.50 L 166.60 706.70 L 156.60 706.50 L 149.10 705.90 L 142.30 705.00 L 133.40 702.90 L 128.60 700.70 L 126.70 699.20 L 126.70 596.50 Z" fill="url(#linear-gradient-3)" fill-rule="nonzero" group-id="1,7,41" id="路径_1167" node-id="71" stroke="none" target-height="110.20001" target-width="76.5" target-x="126.7" target-y="596.5"/><path d="M 126.40 596.80 L 126.60 595.90 L 127.50 595.00 L 129.40 593.90 L 132.70 592.70 L 137.70 591.50 L 149.90 589.80 L 164.90 589.20 L 180.00 589.80 L 192.20 591.50 L 197.20 592.70 L 200.50 593.90 L 202.30 595.00 L 203.20 595.90 L 203.50 596.80 L 203.20 597.80 L 202.30 598.70 L 200.50 599.80 L 197.20 601.00 L 192.20 602.20 L 180.00 603.90 L 164.90 604.50 L 149.90 603.90 L 137.70 602.20 L 132.70 601.00 L 129.40 599.80 L 127.50 598.70 L 126.60 597.80 L 126.40 596.80 Z" fill="#b7bbc2" fill-rule="nonzero" group-id="1,7,42" id="椭圆_359" node-id="72" stroke="none" target-height="15.299988" target-width="77.1" target-x="126.4" target-y="589.2"/><path d="M 130.40 599.90 L 131.40 598.80 L 133.10 598.10 L 140.40 596.70 L 151.20 595.70 L 164.40 595.30 L 177.70 595.70 L 188.50 596.70 L 195.80 598.10 L 197.50 598.80 L 198.40 599.90 L 197.50 601.00 L 195.80 601.70 L 188.50 603.10 L 177.70 604.10 L 164.40 604.50 L 151.20 604.10 L 140.40 603.10 L 133.10 601.70 L 131.40 601.00 L 130.40 599.90 Z" fill="#769be5" fill-rule="nonzero" group-id="1,7,43" id="椭圆_360" node-id="73" stroke="none" target-height="9.200012" target-width="68" target-x="130.4" target-y="595.3"/><path d="M 179.60 572.50 L 178.70 568.30 L 177.00 563.80 L 176.20 562.60 L 172.40 558.60 L 171.60 557.20 L 170.90 555.00 L 169.80 549.80 L 169.60 544.30 L 169.90 541.80 L 170.90 538.80 L 171.60 538.20 L 174.10 537.20 L 176.00 535.80 L 177.70 533.90 L 179.20 531.70 L 180.20 529.30 L 180.70 526.90 L 180.70 525.30 L 179.60 522.50 L 178.10 521.00 L 170.30 517.10 L 167.60 514.60 L 166.10 511.00 L 165.60 507.70 L 166.60 495.30 L 166.30 493.10 L 165.80 491.80 L 164.80 490.70 L 163.50 489.90 L 161.00 489.30 L 158.30 489.30 L 155.60 489.80 L 152.90 490.80 L 150.40 492.20 L 148.30 493.80 L 146.60 495.70 L 144.50 499.50 L 143.10 501.00 L 136.50 504.80 L 135.50 505.80 L 135.20 506.90 L 135.40 508.30 L 136.10 509.90 L 140.10 515.80 L 140.70 517.60 L 137.40 520.40 L 135.20 523.30 L 134.40 525.40 L 133.20 530.50 L 132.30 531.80 L 128.00 535.10 L 127.30 536.20 L 126.90 538.10 L 127.00 540.50 L 128.60 548.40 L 129.00 553.10 L 128.40 555.50 L 126.80 558.70 L 126.30 560.20 L 125.10 569.30 L 124.80 575.30 L 125.10 577.20 L 126.60 580.30 L 127.80 581.60 L 129.60 582.70 L 132.00 583.70 L 138.50 585.10 L 145.20 585.10 L 156.00 583.70 L 168.10 582.90 L 174.50 581.40 L 176.30 580.50 L 178.80 578.20 L 179.60 576.70 L 179.90 574.80 L 179.60 572.50 Z" fill="#adbbb4" fill-rule="nonzero" group-id="1,7,44,67" id="路径_1168" node-id="75" stroke="none" target-height="95.79999" target-width="55.899994" target-x="124.8" target-y="489.3"/><path d="M 156.30 497.40 L 153.80 510.60 L 150.70 532.80 L 149.10 550.60 L 148.60 568.60 L 149.00 577.20 L 150.30 587.90 L 152.70 597.10 L 154.40 601.00 L 156.30 604.20" fill="none" group-id="1,7,44,68" id="路径_1169" node-id="76" stroke="#ababab" stroke-linecap="butt" stroke-width="0.6" target-height="106.80002" target-width="7.699997" target-x="148.6" target-y="497.4"/><path d="M 161.50 507.40 L 152.60 518.70 L 147.80 512.40" fill="none" group-id="1,7,44,69" id="路径_1170" node-id="77" stroke="#ababab" stroke-linecap="butt" stroke-width="0.6" target-height="11.300018" target-width="13.699997" target-x="147.8" target-y="507.4"/><path d="M 167.30 526.10 L 162.60 528.30 L 157.50 532.20 L 153.00 537.20 L 150.30 540.90 L 144.00 532.50 L 140.50 528.80" fill="none" group-id="1,7,44,70" id="路径_1171" node-id="78" stroke="#ababab" stroke-linecap="butt" stroke-width="0.6" target-height="14.800049" target-width="26.800003" target-x="140.5" target-y="526.1"/><path d="M 165.40 549.90 L 162.30 551.20 L 159.30 553.20 L 156.40 555.70 L 153.80 558.20 L 148.40 564.70 L 146.40 560.10 L 142.70 554.00 L 138.40 549.20 L 134.20 546.60" fill="none" group-id="1,7,44,71" id="路径_1172" node-id="79" stroke="#ababab" stroke-linecap="butt" stroke-width="0.6" target-height="18.100037" target-width="31.199997" target-x="134.2" target-y="546.6"/><path d="M 159.30 570.90 L 157.40 571.40 L 155.50 572.60 L 153.80 574.20 L 152.30 575.90 L 149.20 580.60 L 135.90 575.50" fill="none" group-id="1,7,44,72" id="路径_1173" node-id="80" stroke="#ababab" stroke-linecap="butt" stroke-width="0.6" target-height="9.699951" target-width="23.40001" target-x="135.9" target-y="570.9"/><path d="M 143.00 566.50 L 144.20 561.60 L 146.20 556.10 L 147.10 554.70 L 151.60 550.00 L 152.50 548.30 L 153.40 545.70 L 154.70 539.50 L 155.00 533.00 L 154.70 530.10 L 153.40 526.50 L 152.60 525.70 L 150.30 524.80 L 147.30 522.80 L 145.30 520.60 L 143.60 518.00 L 142.30 515.10 L 141.70 512.20 L 141.70 510.40 L 142.20 508.70 L 143.00 507.10 L 144.90 505.20 L 147.10 503.90 L 154.20 500.70 L 156.20 499.00 L 157.40 497.70 L 159.20 493.40 L 159.70 489.50 L 159.60 485.50 L 158.60 474.80 L 158.90 472.10 L 159.50 470.50 L 160.60 469.30 L 162.20 468.30 L 166.20 467.50 L 168.40 467.50 L 171.60 468.20 L 174.80 469.30 L 177.70 471.00 L 181.70 474.50 L 185.30 480.40 L 188.50 482.80 L 194.30 486.00 L 195.70 487.60 L 195.90 488.60 L 195.60 490.10 L 194.80 492.00 L 190.10 499.10 L 189.40 500.50 L 189.40 501.30 L 193.20 504.50 L 195.80 508.00 L 196.80 510.50 L 198.00 515.90 L 198.60 517.20 L 200.50 519.30 L 204.40 522.00 L 205.50 524.00 L 205.80 525.70 L 205.70 528.50 L 203.80 537.90 L 203.20 543.40 L 203.90 546.30 L 205.90 550.10 L 206.40 551.90 L 207.90 562.70 L 208.30 569.90 L 207.90 572.10 L 207.20 574.00 L 206.10 575.80 L 204.70 577.30 L 202.60 578.70 L 199.70 579.80 L 191.90 581.50 L 183.90 581.50 L 171.20 579.80 L 156.70 578.90 L 152.70 578.20 L 149.20 577.10 L 147.00 576.10 L 145.30 574.80 L 144.00 573.20 L 143.10 571.50 L 142.80 569.20 L 143.00 566.50 Z" fill="#cbd7d1" fill-rule="nonzero" group-id="1,7,45,73" id="路径_1168-2" node-id="82" stroke="none" target-height="114" target-width="66.600006" target-x="141.7" target-y="467.5"/><path d="M 170.80 477.20 L 173.70 493.00 L 177.50 519.30 L 179.40 540.40 L 179.90 551.20 L 179.90 561.90 L 179.50 572.10 L 177.90 584.80 L 176.70 590.40 L 175.10 595.80 L 173.10 600.40 L 170.80 604.20" fill="none" group-id="1,7,45,74" id="路径_1169-2" node-id="83" stroke="#707070" stroke-linecap="butt" stroke-width="0.6" target-height="127" target-width="9.099991" target-x="170.8" target-y="477.2"/><path d="M 164.60 489.10 L 175.20 502.60 L 180.80 495.10" fill="none" group-id="1,7,45,75" id="路径_1170-2" node-id="84" stroke="#707070" stroke-linecap="butt" stroke-width="0.6" target-height="13.5" target-width="16.199997" target-x="164.6" target-y="489.1"/><path d="M 157.70 511.30 L 163.30 513.90 L 169.40 518.60 L 174.80 524.50 L 177.90 529.00 L 185.40 519.00 L 189.60 514.60" fill="none" group-id="1,7,45,76" id="路径_1171-2" node-id="85" stroke="#707070" stroke-linecap="butt" stroke-width="0.6" target-height="17.700012" target-width="31.90001" target-x="157.7" target-y="511.3"/><path d="M 160.00 539.60 L 162.90 540.80 L 168.70 544.70 L 173.80 549.60 L 180.20 557.20 L 184.50 548.20 L 188.60 542.30 L 193.00 538.00 L 197.10 535.70" fill="none" group-id="1,7,45,77" id="路径_1172-2" node-id="86" stroke="#707070" stroke-linecap="butt" stroke-width="0.6" target-height="21.5" target-width="37.100006" target-x="160" target-y="535.7"/><path d="M 167.20 564.60 L 170.20 565.60 L 173.70 568.50 L 175.50 570.60 L 179.20 576.10 L 195.00 570.00" fill="none" group-id="1,7,45,78" id="路径_1173-2" node-id="87" stroke="#707070" stroke-linecap="butt" stroke-width="0.6" target-height="11.5" target-width="27.800003" target-x="167.2" target-y="564.6"/><path d="M 352.40 217.50 L 352.40 203.20 L 338.10 203.20 L 336.90 202.90 L 335.90 202.30 L 335.20 201.30 L 335.00 200.10 L 335.20 198.90 L 335.90 197.90 L 336.90 197.30 L 338.10 197.00 L 352.40 197.00 L 352.40 182.70 L 352.70 181.50 L 353.30 180.50 L 354.30 179.80 L 355.50 179.60 L 356.70 179.80 L 357.70 180.50 L 358.30 181.50 L 358.60 182.70 L 358.60 197.00 L 372.90 197.00 L 374.10 197.30 L 375.10 197.90 L 375.80 198.90 L 376.00 200.10 L 375.80 201.30 L 375.10 202.30 L 374.10 202.90 L 372.90 203.20 L 358.60 203.20 L 358.60 217.50 L 358.30 218.70 L 357.70 219.70 L 356.70 220.40 L 355.50 220.60 L 354.30 220.40 L 353.30 219.70 L 352.70 218.70 L 352.40 217.50 Z" fill="#d1e6ff" fill-rule="nonzero" group-id="1,8" id="联合_163" node-id="88" stroke="none" target-height="41" target-width="41" target-x="335" target-y="179.6"/><path d="M 432.30 177.60 L 430.20 177.30 L 428.30 176.70 L 426.50 175.60 L 425.10 174.20 L 424.00 172.50 L 423.30 170.40 L 423.00 168.30 L 423.20 166.30 L 423.90 164.40 L 424.90 162.60 L 426.30 161.20 L 428.10 160.00 L 428.20 156.90 L 428.70 155.00 L 429.40 153.10 L 431.60 149.80 L 434.70 147.30 L 436.60 146.50 L 440.70 145.60 L 444.60 146.00 L 448.30 147.50 L 451.30 150.10 L 453.50 153.60 L 456.70 152.80 L 460.00 153.60 L 462.50 155.80 L 463.70 159.00 L 465.40 159.20 L 468.40 160.30 L 470.30 161.80 L 471.80 163.60 L 472.90 166.60 L 473.00 168.30 L 472.90 170.00 L 471.70 173.00 L 470.30 174.90 L 468.40 176.30 L 465.40 177.40 L 463.70 177.60 Z" fill="#e2efff" fill-rule="nonzero" group-id="1,9" id="联合_164" node-id="89" stroke="none" target-height="32" target-width="50" target-x="423" target-y="145.6"/><path d="M 165.40 230.90 L 163.50 230.70 L 162.00 230.00 L 160.60 228.90 L 159.50 227.60 L 158.90 226.00 L 158.60 224.10 L 158.80 222.30 L 159.50 220.70 L 160.60 219.40 L 161.90 218.30 L 163.50 217.60 L 165.40 217.40 L 166.30 215.00 L 168.10 213.40 L 170.50 212.80 L 172.90 213.40 L 174.00 211.40 L 175.50 209.80 L 177.30 208.60 L 179.30 207.90 L 181.50 207.60 L 183.80 207.80 L 185.90 208.50 L 187.80 209.70 L 189.30 211.20 L 190.50 213.00 L 191.20 215.10 L 191.40 218.10 L 193.70 220.00 L 195.00 222.70 L 195.00 225.70 L 193.60 228.40 L 191.30 230.30 L 188.40 230.90 Z" fill="#e2efff" fill-rule="nonzero" group-id="1,10" id="联合_165" node-id="90" stroke="none" target-height="23.299988" target-width="36.399994" target-x="158.6" target-y="207.6"/><path d="M 382.20 467.40 L 393.80 466.20 L 395.20 449.40 L 382.80 454.80 Z" fill="#f9b272" fill-rule="nonzero" group-id="1,11,46" id="路径_1174" node-id="92" stroke="none" target-height="18" target-width="13" target-x="382.2" target-y="449.4"/><path d="M 389.90 422.40 L 394.90 423.20 L 396.80 424.00 L 399.30 425.70 L 401.30 427.70 L 403.90 432.00 L 405.40 437.30 L 407.60 458.80 L 373.60 458.80 L 373.60 437.30 L 375.30 431.90 L 378.00 427.50 L 381.70 424.50 L 383.90 423.40 L 386.60 422.70 L 389.90 422.40 Z" fill="#18255a" fill-rule="nonzero" group-id="1,11,47" id="路径_1175" node-id="93" stroke="none" target-height="36.399994" target-width="34" target-x="373.6" target-y="422.4"/><path d="M 461.40 442.30 L 463.30 436.80 L 464.10 435.30 L 465.20 434.10 L 465.70 434.10 L 466.10 434.50 L 465.60 439.10 L 465.80 440.70 L 467.00 441.10 L 468.00 440.90 L 469.40 439.70 L 470.00 438.10 L 470.30 435.90 L 470.30 429.10 L 470.80 428.40 L 472.20 429.70 L 474.40 434.70 L 475.00 440.50 L 474.90 444.70 L 474.50 446.70 L 474.00 448.50 L 471.60 452.30 L 467.90 455.90 L 464.70 457.30 L 463.00 457.60 L 461.40 457.50 L 460.30 457.10 L 459.70 456.50 L 459.30 455.20 L 459.40 453.70 L 460.80 451.00 L 460.40 446.60 L 461.40 442.30 Z" fill="#f9b272" fill-rule="nonzero" group-id="1,11,48" id="路径_1181" node-id="94" stroke="none" target-height="29.200012" target-width="15.700012" target-x="459.3" target-y="428.4"/><path d="M 360.40 571.60 L 361.40 572.20 L 362.20 572.20 L 363.00 571.60 L 363.90 570.00 L 365.40 564.20 L 366.00 557.40 L 365.70 552.10 L 363.50 547.40 L 362.20 543.70 L 361.20 539.00 L 360.20 538.50 L 359.20 538.70 L 357.90 539.40 L 354.50 542.10 L 355.10 551.00 L 356.90 563.00 L 358.60 568.80 L 360.40 571.60 Z" fill="#f1ab7a" fill-rule="nonzero" group-id="1,11,49" id="路径_1187" node-id="95" stroke="none" target-height="33.700012" target-width="11.5" target-x="354.5" target-y="538.5"/><path d="M 370.00 644.00 L 368.90 649.40 L 366.40 673.10 L 364.50 701.20 L 364.20 716.10 L 364.30 718.00 L 365.00 720.40 L 365.90 722.00 L 368.30 724.10 L 371.40 725.00 L 372.80 714.10 L 375.40 698.60 L 377.80 689.10 L 380.40 681.70 L 381.60 677.00 L 383.50 667.10 L 385.70 652.20 L 387.60 643.20 L 387.90 639.50 L 387.70 635.70 L 386.90 631.50 L 386.30 629.90 L 384.20 627.30 L 382.10 625.80 L 377.20 623.80 L 369.20 622.60 L 370.20 628.70 L 370.80 637.20 L 370.50 642.30 L 370.00 644.00 Z" fill="#fca677" fill-rule="nonzero" group-id="1,11,50,79" id="路径_1183" node-id="97" stroke="none" target-height="102.400024" target-width="23.699982" target-x="364.2" target-y="622.6"/><path d="M 364.00 736.20 L 367.50 736.20 L 367.50 725.70 L 375.90 733.30 L 378.50 736.40 L 393.90 736.60 L 392.40 732.90 L 391.10 730.90 L 389.20 728.90 L 386.80 727.10 L 380.20 723.60 L 377.50 721.90 L 371.90 717.40 L 364.00 717.10 Z" fill="#2c353a" fill-rule="nonzero" group-id="1,11,50,80" id="路径_1184" node-id="98" stroke="none" target-height="19.5" target-width="29.899994" target-x="364" target-y="717.1"/><path d="M 422.90 637.10 L 417.10 719.20 L 416.60 722.00 L 415.80 723.50 L 414.80 724.40 L 413.70 724.60 L 412.60 724.40 L 411.40 723.90 L 408.80 721.70 L 407.50 697.00 L 406.50 684.30 L 404.40 669.00 L 403.60 657.70 L 403.40 640.80 L 403.90 632.40 L 404.70 628.40 L 405.60 627.70 L 412.80 625.40 L 419.70 623.80 L 422.70 633.80 L 422.90 637.10 Z" fill="#fba572" fill-rule="nonzero" group-id="1,11,50,81" id="路径_1186" node-id="99" stroke="none" target-height="100.79999" target-width="19.5" target-x="403.4" target-y="623.8"/><path d="M 407.90 736.20 L 411.40 736.20 L 411.40 725.70 L 419.90 733.30 L 422.40 736.40 L 437.80 736.60 L 436.40 732.90 L 435.10 730.90 L 433.20 728.90 L 430.80 727.10 L 424.10 723.60 L 421.50 721.90 L 415.90 717.40 L 407.90 717.10 Z" fill="#2c353a" fill-rule="nonzero" group-id="1,11,50,82" id="路径_1185" node-id="100" stroke="none" target-height="19.5" target-width="29.899994" target-x="407.9" target-y="717.1"/><path d="M 360.70 576.60 L 362.90 634.90 L 369.10 636.40 L 374.20 637.20 L 379.90 637.70 L 392.20 637.80 L 403.80 636.50 L 409.90 635.40 L 423.40 631.60 L 421.70 614.20 L 419.50 596.90 L 416.90 579.60 L 413.90 562.40 L 410.30 545.20 L 409.30 541.80 L 407.90 539.20 L 406.30 537.40 L 404.40 536.00 L 402.20 535.00 L 399.80 534.60 L 394.70 534.70 L 391.90 535.30 L 387.80 536.60 L 379.80 540.30 L 369.30 547.00 L 366.50 552.20 L 363.20 560.50 L 361.10 569.20 L 360.70 576.60 Z" fill="#192360" fill-rule="nonzero" group-id="1,11,51" id="路径_1182" node-id="101" stroke="none" target-height="103.20001" target-width="62.69998" target-x="360.7" target-y="534.6"/><path d="M 396.20 462.50 L 397.10 468.10 L 376.00 468.40 L 380.00 462.50 Z" fill="#15155f" fill-rule="nonzero" group-id="1,11,52,83" id="路径_1176" node-id="103" stroke="none" target-height="5.899994" target-width="21.100006" target-x="376" target-y="462.5"/><path d="M 366.70 548.80 L 387.90 549.10 L 398.70 548.90 L 407.80 548.40 L 411.40 547.80 L 413.10 547.20 L 411.50 543.90 L 410.80 543.10 L 409.70 542.60 L 368.40 544.10 Z" fill="#ffffff" fill-rule="nonzero" group-id="1,11,52,84" id="路径_1180" node-id="104" stroke="none" target-height="6.5" target-width="46.399994" target-x="366.7" target-y="542.6"/><path d="M 360.70 477.60 L 348.10 507.10 L 353.20 539.80 L 362.40 539.80 L 360.70 513.20 L 365.20 499.30 L 366.30 496.70 L 367.40 495.00 L 368.20 497.00 L 368.70 499.90 L 369.90 515.10 L 370.00 532.40 L 369.10 541.60 L 368.40 544.20 L 374.20 545.00 L 386.30 545.90 L 402.40 545.80 L 412.40 545.20 L 412.90 509.80 L 415.80 502.30 L 416.70 497.10 L 416.70 494.40 L 416.10 491.10 L 414.80 486.80 L 413.50 484.70 L 440.20 485.90 L 464.20 461.10 L 457.60 453.30 L 437.50 470.50 L 414.80 467.60 L 396.50 464.90 L 387.10 464.30 L 376.20 464.90 L 370.50 466.00 L 367.30 468.10 L 363.80 472.00 L 360.70 477.60 Z" fill="#3e62fe" fill-rule="nonzero" group-id="1,11,52,85" id="路径_1177" node-id="105" stroke="none" target-height="92.60004" target-width="116.100006" target-x="348.1" target-y="453.3"/><path d="M 460.80 449.90 L 468.60 457.50 L 463.50 461.90 L 457.30 453.60 Z" fill="#111d67" fill-rule="nonzero" group-id="1,11,52,86" id="路径_1178" node-id="106" stroke="none" target-height="12" target-width="11.300018" target-x="457.3" target-y="449.9"/><path d="M 353.10 543.40 L 363.80 543.40 L 361.80 539.10 L 353.10 539.80 Z" fill="#131957" fill-rule="nonzero" group-id="1,11,52,87" id="路径_1179" node-id="107" stroke="none" target-height="4.300049" target-width="10.699982" target-x="353.1" target-y="539.1"/><path d="M 652.00 699.00 L 652.00 641.50 L 559.00 641.50 L 559.00 699.00 L 551.00 699.00 L 551.00 218.00 L 559.00 218.00 L 559.00 249.50 L 652.00 249.50 L 652.00 218.00 L 660.00 218.00 L 660.00 699.00 Z M 652.00 633.50 L 652.00 593.50 L 559.00 593.50 L 559.00 633.50 Z M 652.00 585.50 L 652.00 545.50 L 559.00 545.50 L 559.00 585.50 Z M 652.00 537.50 L 652.00 497.50 L 559.00 497.50 L 559.00 537.50 Z M 652.00 489.50 L 652.00 449.50 L 559.00 449.50 L 559.00 489.50 Z M 652.00 441.50 L 652.00 401.50 L 559.00 401.50 L 559.00 441.50 Z M 652.00 393.50 L 652.00 353.50 L 559.00 353.50 L 559.00 393.50 Z M 652.00 345.50 L 652.00 305.50 L 559.00 305.50 L 559.00 345.50 Z M 652.00 297.50 L 652.00 257.50 L 559.00 257.50 L 559.00 297.50 Z" fill="#3b62fb" fill-rule="nonzero" group-id="1,12" id="联合_166" node-id="108" stroke="none" target-height="481" target-width="109" target-x="551" target-y="218"/></g></g></svg>